<?xml version="1.0" encoding="UTF-8" standalone="no"?>
<!-- Created with Inkscape (http://www.inkscape.org/) -->

<svg
   version="1.1"
   id="svg1"
   width="1280"
   height="720"
   viewBox="0 0 1280 720"
   sodipodi:docname="HoldLogo.svg"
   inkscape:version="1.4.3 (0d15f75, 2025-12-25)"
   xmlns:inkscape="http://www.inkscape.org/namespaces/inkscape"
   xmlns:sodipodi="http://sodipodi.sourceforge.net/DTD/sodipodi-0.dtd"
   xmlns="http://www.w3.org/2000/svg"
   xmlns:svg="http://www.w3.org/2000/svg">
  <defs
     id="defs1" />
  <sodipodi:namedview
     id="namedview1"
     pagecolor="#ffffff"
     bordercolor="#000000"
     borderopacity="0.25"
     inkscape:showpageshadow="2"
     inkscape:pageopacity="0.0"
     inkscape:pagecheckerboard="0"
     inkscape:deskcolor="#d1d1d1"
     inkscape:zoom="1.7152778"
     inkscape:cx="640.12955"
     inkscape:cy="360"
     inkscape:window-width="3840"
     inkscape:window-height="2054"
     inkscape:window-x="-11"
     inkscape:window-y="-11"
     inkscape:window-maximized="1"
     inkscape:current-layer="g1" />
  <g
     inkscape:groupmode="layer"
     inkscape:label="Image"
     id="g1">
    <path
       style="fill:#000000"
       d="m 320.34413,593.44963 c 0,-0.53828 19.71545,-14.81579 92,-66.62449 105.32991,-75.49337 181.26805,-130.11974 214.23843,-154.11316 19.31813,-14.05832 19.29101,-14.05906 34.51157,0.94704 7.42355,7.31895 7.84754,6.71386 1.70945,-2.43964 l -4.54055,-6.77115 3.20848,-2.55711 c 7.21364,-5.74917 32.67877,-25.4761 51.06347,-39.55711 16.8637,-12.91604 19.4021,-15.2084 18.2709,-16.5 -2.9754,-3.39704 -7.4602,-14.63952 -7.461,-18.70295 0,-10.93579 19.4729,-26.76782 28.8891,-23.48528 3.6555,1.27429 4.1102,0.82692 4.1102,-4.04418 0,-5.64808 0.9031,-6.80754 13.2881,-17.05903 32.5869,-26.97343 52.6809,-41.85729 57.5763,-42.64733 l 3.6356,-0.58672 0.5,-7.15613 c 3.1043,-44.43076 66.9586,-31.78231 94.312,18.68162 17.1425,31.6259 -6.5731,70.94501 -37.0725,61.46397 -1.9053,-0.5923 -2.4329,-0.20775 -3.3588,2.44818 -1.2135,3.48126 -5.309,6.68884 -43.0539,33.71972 -27.0773,19.39127 -27.7709,19.78471 -33.4954,19.00009 l -4.3314,-0.5937 -0.035,4.23087 c -0.049,5.79837 -1.3758,7.76528 -9.4687,14.03233 -14.394,11.14653 -20.2725,11.47628 -30.8457,1.73027 l -4.4705,-4.12079 -14.4264,11.29453 c -7.9345,6.21199 -25.075,19.5404 -38.0899,29.6187 -13.0149,10.07829 -23.6569,18.62829 -23.6489,19 0.01,0.3717 0.7147,2.68661 1.5704,5.14422 3.0828,8.85441 3.5522,8.30057 -29.86598,35.24207 -66.93522,53.96273 -110.20196,88.97741 -128.71897,104.16897 -10.725,8.79892 -27.94849,22.8881 -38.27443,31.3093 l -18.77482,15.31127 H 394.8197 c -40.96156,0 -74.47557,-0.17297 -74.47557,-0.38438 z M 762.27578,281.19488 c -9.5099,-10.0019 -13.6408,-11.16679 -19.8972,-5.61087 l -4.2227,3.75 h 7.3441 c 6.1732,0 8.3008,0.48044 13.3442,3.01322 7.3162,3.67425 7.8503,3.49491 3.4316,-1.15235 z m 7.6234,-5.25444 c -3.5658,-6.89539 -9.5525,-11.77568 -11.7498,-9.57832 -0.2905,0.29046 2.4399,3.41004 6.0676,6.9324 7.1365,6.9294 8.1386,7.396 5.6822,2.64592 z m 30.4669,-34.67752 c 35.382,-27.76764 34.7054,-27.39422 43.4781,-23.99389 1.1,0.42636 0.2,-0.83216 -2,-2.79672 -4.9734,-4.44114 -11.7797,-7.27778 -14.4732,-6.03198 -2.6377,1.22001 -60.9953,47.71343 -61.0128,48.60888 -0.01,0.39337 1.3608,2.28104 3.0411,4.19484 l 3.0552,3.47964 3.7167,-3.69484 c 2.0442,-2.03216 12.9319,-10.92683 24.1949,-19.76593 z m 53.1351,-28.082 c -4.6414,-9.00658 -13.7344,-16.77246 -16.7289,-14.28729 -2.2847,1.89613 -1.6386,3.31875 2.3477,5.16913 2.0483,0.95081 6.4242,4.32581 9.7242,7.5 6.9445,6.67975 7.3355,6.81561 4.657,1.61816 z m 58.2254,-6.59691 c -17.2043,-29.23706 -48.8,-40.91648 -66.1324,-24.44603 -4.0028,3.80364 -4.0053,4.02146 -0.075,6.50995 l 3.175,2.01032 4.3993,-3.35912 c 13.4506,-10.2703 30.9663,-6.0323 49.9887,12.09498 9.0166,8.59228 9.9038,9.33028 8.6444,7.1899 z M 491.445,589.03072 c 3.51952,-2.64181 17.64913,-13.00223 31.39913,-23.02316 13.75,-10.02094 32.65,-23.86147 42,-30.75674 24.45138,-18.03198 57.25995,-41.85427 89,-64.62287 9.35,-6.70718 22.62505,-16.28394 29.50005,-21.28168 21.7486,-15.81008 23,-16.69246 23,-16.21859 0,0.2552 -3.4875,3.07617 -7.75,6.26881 -10.7143,8.02503 -57.32532,44.30352 -83.25005,64.79548 -11.825,9.34696 -25.775,20.37096 -31,24.49778 -26.3768,20.83299 -76,61.86469 -76,62.84177 0,0.26006 2.1375,-1.07875 4.75,-2.97512 2.6125,-1.89637 24.325,-16.69798 48.25,-32.89246 40.15418,-27.17978 70.91553,-48.31644 113.00005,-77.64428 9.075,-6.32419 18.75,-13.04629 21.5,-14.93799 l 5,-3.43946 -4,3.34405 c -2.2,1.83923 -13.675,11.41646 -25.50005,21.28274 -32.38785,27.02305 -82.36124,70.57686 -90.5,78.87437 l -2,2.03901 3,-1.85997 c 1.65,-1.02299 24.825,-17.1644 51.5,-35.86981 26.675,-18.70541 55.02505,-38.55779 63.00005,-44.1164 7.975,-5.55861 21.925,-15.28155 31,-21.60653 9.075,-6.32498 21.45,-14.975 27.5,-19.22226 6.05,-4.24726 14.6,-10.24861 19,-13.33632 4.4,-3.08771 7.55,-5.13952 7,-4.55957 -1.5155,1.59796 -81.8021,62.31821 -157.14251,118.84577 l -67.14245,50.37672 H 520.80254 485.04587 Z M 376.34413,527.39524 c 0,-0.24681 6.6375,-5.51155 14.75,-11.69941 8.1125,-6.18786 21.5,-16.48903 29.75,-22.89149 8.25,-6.40246 22.65,-17.47387 32,-24.60313 9.35,-7.12926 22.85,-17.47925 30,-22.99997 7.15,-5.52072 29.21337,-22.20218 49.02971,-37.0699 l 36.02971,-27.03223 1.67759,-10.38255 c 9.37589,-58.02713 49.99858,-110.31726 112.76304,-145.15019 l 6.5,-3.60736 7.9693,19.9375 c 9.3173,23.30999 7.9706,22.22535 13.2501,10.67151 2.3207,-5.0787 8.6844,-18.90901 14.1414,-30.73401 5.4571,-11.825 14.044,-30.43934 19.0821,-41.36519 5.038,-10.92586 9.0243,-19.96604 8.8585,-20.08929 -0.1658,-0.12325 -10.2014,-0.75745 -22.3014,-1.40933 -24.4956,-1.31967 -47.8545,-2.72915 -69.18744,-4.17478 -7.80307,-0.52878 -16.28691,-0.96141 -18.85299,-0.96141 h -4.66559 l 5.9416,6.75 c 3.26787,3.7125 9.59802,11.09584 14.06698,16.40742 l 8.1254,9.65742 -6.8141,4.04818 c -64.46799,38.29973 -110.58073,101.36834 -124.58661,170.39769 -1.34567,6.63227 -2.80232,12.38815 -3.23699,12.79085 -0.43467,0.40271 -13.16531,9.41798 -28.29031,20.03393 -15.125,10.61596 -43.475,30.52702 -63,44.2468 -19.525,13.71978 -45.175,31.70031 -57,39.95673 -11.825,8.25643 -24.65,17.27238 -28.5,20.03546 -20.70167,14.85722 -19.71181,13.23615 2,-3.27535 7.15,-5.43746 24.25,-18.47231 38,-28.96633 24.23751,-18.49809 120.0389,-90.57707 125.90364,-94.72729 2.59824,-1.83866 3.14584,-3.25387 5.20639,-13.45515 13.16715,-65.18743 56.40301,-126.75244 117.77047,-167.69737 4.46572,-2.97958 8.20979,-5.49695 8.32013,-5.59417 0.22556,-0.19871 -19.81447,-23.58942 -29.55361,-34.49497 -3.49415,-3.91262 -5.96683,-7.11385 -5.49485,-7.11385 1.35088,0 66.20578,3.92101 82.84788,5.00883 8.25,0.53927 22.65,1.42628 32,1.97113 31.3581,1.82732 35.6298,2.24169 35.1635,3.41093 -0.2433,0.61001 -8.6416,18.88411 -18.663,40.60911 -27.6831,60.01331 -28.3323,61.4302 -35.5104,77.5 -3.6852,8.25 -6.8119,15.12139 -6.9483,15.26976 -0.1364,0.14836 -4.6476,-10.71961 -10.0248,-24.15106 -11.8739,-29.65933 -10.4494,-27.21868 -14.6343,-25.07276 -50.53575,25.91317 -95.74879,86.31018 -101.60083,135.72153 l -0.58598,4.94765 4.90203,-3.45796 c 2.69612,-1.90187 12.77703,-8.99397 22.40203,-15.76022 9.625,-6.76625 18.175,-12.78124 19,-13.36664 0.825,-0.5854 1.13606,-0.6292 0.69125,-0.0973 -0.44482,0.53187 -11.00083,8.62256 -23.45782,17.97931 -15.84459,11.90127 -22.81977,17.73543 -23.21728,19.41931 -0.32785,1.38881 -2.67231,3.85611 -5.54219,5.83259 -2.73568,1.88407 -18.02396,12.69255 -33.97396,24.01885 -47.79004,33.93634 -89.3463,63.34127 -119,84.2036 -10.45,7.35192 -24.5125,17.33977 -31.25,22.19524 -6.7375,4.85547 -12.25,8.62618 -12.25,8.37936 z m -47,-11.93879 c 0,-0.20765 0.7875,-0.99515 1.75,-1.75 1.58606,-1.24387 1.62143,-1.2085 0.37756,0.37756 -1.30637,1.66575 -2.12756,2.19548 -2.12756,1.37244 z m 4,-3 c 0,-0.20765 0.7875,-0.99515 1.75,-1.75 1.58606,-1.24387 1.62143,-1.2085 0.37756,0.37756 -1.30637,1.66575 -2.12756,2.19548 -2.12756,1.37244 z m 64.5,-24.03719 c 11.75434,-10.01336 104.63839,-82.58051 132.02096,-103.14349 14.4192,-10.82811 15.07262,-11.47314 16.31029,-16.10065 3.84387,-14.37179 14.82678,-40.02058 24.89696,-58.1428 4.22411,-7.60166 5.29226,-7.68119 1.63388,-0.12164 -7.71485,15.94165 -16.03003,43.27528 -19.76784,64.98069 -0.56642,3.28924 -2.10045,4.60612 -20.35342,17.47246 -23.52506,16.58258 -53.39965,37.78588 -96.24083,68.30629 -36.6305,26.09588 -42.60966,30.2501 -38.5,26.74914 z"
       id="path1" />
  </g>
</svg>
