<?xml version="1.0" encoding="UTF-8" standalone="no"?>
<!-- Created with Inkscape (http://www.inkscape.org/) -->

<svg
   version="1.1"
   id="svg1"
   width="1280"
   height="720"
   viewBox="0 0 1280 720"
   sodipodi:docname="HoldLogo02c.svg"
   inkscape:version="1.4.3 (0d15f75, 2025-12-25)"
   inkscape:export-filename="C:\Users\baldu\HoldLogo02-Redc.png"
   inkscape:export-xdpi="9.6000004"
   inkscape:export-ydpi="9.6000004"
   xmlns:inkscape="http://www.inkscape.org/namespaces/inkscape"
   xmlns:sodipodi="http://sodipodi.sourceforge.net/DTD/sodipodi-0.dtd"
   xmlns="http://www.w3.org/2000/svg"
   xmlns:svg="http://www.w3.org/2000/svg">
  <defs
     id="defs1">
    <inkscape:path-effect
       effect="fill_between_many"
       method="originald"
       linkedpaths="#path2,0,1|"
       id="path-effect5" />
    <inkscape:path-effect
       effect="fill_between_many"
       method="originald"
       linkedpaths="#path1,0,1|"
       id="path-effect6" />
  </defs>
  <sodipodi:namedview
     id="namedview1"
     pagecolor="#ffffff"
     bordercolor="#000000"
     borderopacity="0.25"
     inkscape:showpageshadow="2"
     inkscape:pageopacity="0.0"
     inkscape:pagecheckerboard="0"
     inkscape:deskcolor="#d1d1d1"
     inkscape:zoom="1.7152778"
     inkscape:cx="285.66801"
     inkscape:cy="269.63562"
     inkscape:window-width="3840"
     inkscape:window-height="2054"
     inkscape:window-x="-11"
     inkscape:window-y="-11"
     inkscape:window-maximized="1"
     inkscape:current-layer="g1"
     showgrid="false" />
  <g
     inkscape:groupmode="layer"
     inkscape:label="Image"
     id="g1">
    <rect
       style="opacity:1;fill:#000000;stroke:#000000;stroke-width:0.365851;paint-order:fill markers stroke"
       id="rect1"
       width="599.63416"
       height="200.0121"
       x="103.76723"
       y="66.455475" />
    <path
       inkscape:original-d="M 0,0"
       inkscape:path-effect="#path-effect6"
       d="m 493.75507,219.6653 c -26.63858,5.90489 -55.02083,41.79813 -57.69994,87.51055 -2.55854,43.65428 43.82609,74.70397 72.50898,48.53711 1.7918,-1.63466 2.56989,-1.48468 4.95892,0.96134 3.13128,3.20619 9.29533,4.62461 64.78529,14.91205 39.80714,7.37991 40.77308,7.45692 46.66977,3.64076 l 4.46195,-2.88934 2.22019,4.64039 c 3.0445,6.35742 5.51996,7.83695 17.66069,10.56153 21.59343,4.8459 28.23296,2.17864 34.84499,-14.00268 l 2.79634,-6.84178 21.7055,4.99115 c 11.93795,2.74567 37.6807,8.57692 57.2051,12.95823 16.67271,3.74138 30.86607,7.14887 34.77037,8.32169 -7.86308,-16.50863 -4.58552,-41.59259 8.97887,-54.6079 l -4.85216,-1.15866 c -10.90577,-2.608 -49.11179,-11.19087 -76.61157,-17.2087 -25.22468,-5.51997 -29.19988,-6.73305 -28.62084,-8.73823 1.52316,-5.27398 0.66109,-19.962 -1.43379,-24.43532 -5.64026,-12.03778 -35.23983,-19.42382 -43.91189,-10.95399 -3.36665,3.28806 -4.09869,3.03112 -6.61102,-2.33085 -2.91306,-6.21723 -4.50541,-7.02802 -23.42577,-11.92487 -49.78254,-12.88448 -79.57886,-18.90431 -85.37503,-17.24911 l -4.30305,1.23068 -4.24122,-7.6216 c -9.05189,-16.26177 -22.52714,-21.39549 -36.48068,-18.30245 z"
       id="path6"
       style="fill:#ffffff"
       transform="translate(-133.50607,-136.42105)" />
    <path
       id="path1"
       style="fill:#0099cc;fill-opacity:1;stroke-width:1.21561"
       d="m 493.75507,219.6653 c -26.63858,5.90489 -55.02083,41.79813 -57.69994,87.51055 -2.55854,43.65428 43.82609,74.70397 72.50898,48.53711 1.7918,-1.63466 2.56989,-1.48468 4.95892,0.96134 3.13128,3.20619 9.29533,4.62461 64.78529,14.91205 39.80714,7.37991 40.77308,7.45692 46.66977,3.64076 l 4.46195,-2.88934 2.22019,4.64039 c 3.0445,6.35742 5.51996,7.83695 17.66069,10.56153 21.59343,4.8459 28.23296,2.17864 34.84499,-14.00268 l 2.79634,-6.84178 21.7055,4.99115 c 11.93795,2.74567 37.6807,8.57692 57.2051,12.95823 16.67271,3.74138 30.86607,7.14887 34.77037,8.32169 -7.86308,-16.50863 -4.58552,-41.59259 8.97887,-54.6079 l -4.85216,-1.15866 c -10.90577,-2.608 -49.11179,-11.19087 -76.61157,-17.2087 -25.22468,-5.51997 -29.19988,-6.73305 -28.62084,-8.73823 1.52316,-5.27398 0.66109,-19.962 -1.43379,-24.43532 -5.64026,-12.03778 -35.23983,-19.42382 -43.91189,-10.95399 -3.36665,3.28806 -4.09869,3.03112 -6.61102,-2.33085 -2.91306,-6.21723 -4.50541,-7.02802 -23.42577,-11.92487 -49.78254,-12.88448 -79.57886,-18.90431 -85.37503,-17.24911 l -4.30305,1.23068 -4.24122,-7.6216 C 521.18386,221.70598 507.70861,216.57226 493.75507,219.6653 Z M 493.92,232.994 c 5.0813,-0.79845 10.29399,-0.42157 15.46409,1.3017 6.36791,2.12245 6.48404,2.36017 3.44113,7.12651 l -2.45887,3.84958 -6.57586,-1.42825 c -20.10305,-4.36795 -37.19673,9.33254 -48.78669,39.09754 -5.49363,14.10854 -6.09147,15.3768 -5.80909,12.37118 3.13515,-33.35849 22.70635,-58.85835 44.72529,-62.31826 z m 32.72087,15.1731 c 0.37163,-0.0763 0.73739,-0.0713 1.09504,0.0217 3.49289,0.90884 3.51739,2.80831 0.0838,6.90114 -1.76432,2.10306 -4.84104,8.07383 -6.83647,13.26989 -4.19915,10.93457 -4.56024,11.28692 -4.29247,4.18426 0.42762,-11.34647 5.56359,-23.4831 9.95015,-24.37703 z m 15.66579,5.76124 c 0.2431,-0.0513 0.47761,-0.0775 0.70307,-0.0786 3.53276,-0.0175 91.75056,21.06131 92.23166,22.03797 0.21394,0.42783 -0.32196,3.21417 -1.18449,6.18745 l -1.56863,5.40589 -5.99549,-2.15058 c -3.29831,-1.18262 -19.87157,-5.3577 -36.82842,-9.27852 -53.26893,-12.31712 -52.33068,-12.25642 -60.23366,-3.98882 -0.99093,1.03664 -0.64959,-0.8121 0.75885,-4.1093 2.98501,-6.98791 8.47062,-13.25474 12.11711,-14.02546 z m 105.76496,27.86542 c 0.33869,-0.0435 0.67544,-0.009 1.00843,0.11116 0.46959,0.16991 -0.92687,5.01335 -3.10342,10.76169 -4.28175,11.30841 -5.1431,12.339 -4.88909,5.84333 0.33419,-8.54533 3.71019,-16.29512 6.98408,-16.71618 z m 15.46512,1.45632 c 2.13243,-0.51717 4.61258,-0.22952 7.66021,0.67328 l 6.58282,1.94935 -8.08478,3.78705 c -6.79526,3.18388 -8.88851,4.81164 -13.13385,10.20084 -6.15841,7.8179 -6.83931,7.89614 -4.37222,0.50159 3.65038,-10.94131 6.65649,-15.97421 11.34782,-17.11211 z"
       sodipodi:nodetypes="ssscscccscccscccsccssscccssscccscsssssssssccccsssssssssscccsssc"
       transform="translate(-133.50607,-136.42105)" />
    <path
       inkscape:original-d="M 0,0"
       inkscape:path-effect="#path-effect5"
       d="m 323.69886,218.8115 c -0.006,0.002 -0.012,0.006 -0.0161,0.009 l -0.002,0.002 c -0.002,0.002 -0.005,0.006 -0.006,0.007 -0.11268,0.23989 1.67399,2.53504 4.1465,5.30365 7.2855,8.15806 22.27756,25.65667 22.10882,25.80532 -0.0826,0.0727 -2.8835,1.95558 -6.22414,4.18449 -45.90683,30.62946 -78.24935,76.68399 -88.09924,125.44842 -0.58642,2.90322 -1.01018,4.85581 -1.41577,6.23582 h 41.78477 c 3.16088,-36.09944 39.74496,-77.78836 75.78393,-96.26804 3.13058,-1.60528 2.0653,-3.43143 10.94775,18.75567 4.02249,10.0476 7.3976,18.17704 7.49963,18.06606 0.10204,-0.111 2.44025,-5.25107 5.19702,-11.42261 5.36968,-12.02124 5.85484,-13.08117 26.5636,-57.97501 7.49665,-16.25171 13.77993,-29.92212 13.96193,-30.37845 0.34882,-0.87466 -2.84711,-1.18406 -26.305,-2.55101 -6.99441,-0.40759 -17.76654,-1.07081 -23.93807,-1.47422 -12.44937,-0.81375 -60.96487,-3.74763 -61.97541,-3.74763 -0.002,0 -0.006,-3e-5 -0.007,0 -0.002,1.9e-4 -0.004,-5.2e-4 -0.006,0 z"
       id="path5"
       style="fill:#00ff45;fill-opacity:1"
       transform="translate(-133.50607,-136.42105)" />
    <path
       id="path2"
       style="fill:#f9f9f9;stroke:none;stroke-width:0.748065"
       d="m 323.69886,218.8115 c -0.006,0.002 -0.012,0.006 -0.0161,0.009 l -0.002,0.002 c -0.002,0.002 -0.005,0.006 -0.006,0.007 -0.11268,0.23989 1.67399,2.53504 4.1465,5.30365 7.2855,8.15806 22.27756,25.65667 22.10882,25.80532 -0.0826,0.0727 -2.8835,1.95558 -6.22414,4.18449 -45.90683,30.62946 -78.24935,76.68399 -88.09924,125.44842 -0.58642,2.90322 -1.01018,4.85581 -1.41577,6.23582 h 41.78477 c 3.16088,-36.09944 39.74496,-77.78836 75.78393,-96.26804 3.13058,-1.60528 2.0653,-3.43143 10.94775,18.75567 4.02249,10.0476 7.3976,18.17704 7.49963,18.06606 0.10204,-0.111 2.44025,-5.25107 5.19702,-11.42261 5.36968,-12.02124 5.85484,-13.08117 26.5636,-57.97501 7.49665,-16.25171 13.77993,-29.92212 13.96193,-30.37845 0.34882,-0.87466 -2.84711,-1.18406 -26.305,-2.55101 -6.99441,-0.40759 -17.76654,-1.07081 -23.93807,-1.47422 -12.44937,-0.81375 -60.96487,-3.74763 -61.97541,-3.74763 -0.002,0 -0.006,-3e-5 -0.007,0 -0.002,1.9e-4 -0.004,-5.2e-4 -0.006,0 z m 15.82918,8.22871 h 3.49047 c 1.9196,0 8.26498,0.32328 14.10219,0.71884 15.95842,1.08143 33.43244,2.13656 51.75673,3.12376 9.05159,0.48764 16.55987,0.96122 16.6839,1.05342 0.12403,0.0922 -2.85864,6.85526 -6.62739,15.02851 -3.76883,8.17324 -10.19233,22.09801 -14.2746,30.94387 -4.08218,8.84587 -8.84207,19.19211 -10.5781,22.99131 -3.9494,8.64302 -2.94192,9.45412 -9.91185,-7.98326 l -5.96261,-14.91454 -4.86242,2.69858 c -59.03112,32.76165 -76.99428,77.05316 -82.41278,99.01631 h -28.15617 c 11.03811,-50.71116 45.21287,-96.88815 92.7016,-125.10068 l 5.09619,-3.02879 -6.07803,-7.2235 c -3.34307,-3.97341 -8.07801,-9.49721 -10.52258,-12.2744 z"
       sodipodi:nodetypes="scccsscsccssscssssscscsssscssccsccccccc"
       transform="translate(-133.50607,-136.42105)" />
  </g>
</svg>
